# This file uses centimeters as units for non-parametric coordinates.

mtllib apple.mtl
g default
v 0.129114 0.008612 -0.129114
v 0.000000 0.008612 -0.182595
v -0.129114 0.008612 -0.129114
v -0.182595 0.008612 0.000000
v -0.129114 0.008612 0.129114
v 0.000000 0.008612 0.182595
v 0.129114 0.008612 0.129114
v 0.182595 0.008612 0.000000
v 0.221654 0.091278 -0.221654
v 0.000000 0.091278 -0.313466
v -0.221654 0.091278 -0.221654
v -0.313466 0.091278 0.000000
v -0.221654 0.091278 0.221654
v 0.000000 0.091278 0.313466
v 0.221654 0.091278 0.221654
v 0.313466 0.091278 0.000000
v 0.287272 0.246075 -0.287272
v 0.000000 0.246075 -0.406264
v -0.287272 0.246075 -0.287272
v -0.406264 0.246075 0.000000
v -0.287272 0.246075 0.287272
v 0.000000 0.246075 0.406264
v 0.287272 0.246075 0.287272
v 0.406264 0.246075 0.000000
v 0.326113 0.428670 -0.326113
v 0.000000 0.428670 -0.461193
v -0.326113 0.428670 -0.326113
v -0.461193 0.428670 0.000000
v -0.326113 0.428670 0.326113
v 0.000000 0.428670 0.461193
v 0.326113 0.428670 0.326113
v 0.461193 0.428670 0.000000
v 0.311709 0.611265 -0.311709
v 0.000000 0.611265 -0.440823
v -0.311709 0.611265 -0.311709
v -0.440823 0.611265 0.000000
v -0.311709 0.611265 0.311709
v 0.000000 0.611265 0.440823
v 0.311709 0.611265 0.311709
v 0.440823 0.611265 0.000000
v 0.238572 0.766061 -0.238572
v 0.000000 0.766061 -0.337392
v -0.238572 0.766061 -0.238572
v -0.337392 0.766061 0.000000
v -0.238572 0.766061 0.238572
v 0.000000 0.766061 0.337392
v 0.238572 0.766061 0.238572
v 0.337392 0.766061 0.000000
v 0.129114 0.812139 -0.129114
v 0.000000 0.812139 -0.182595
v -0.129114 0.812139 -0.129114
v -0.182595 0.812139 0.000000
v -0.129114 0.812139 0.129114
v 0.000000 0.812139 0.182595
v 0.129114 0.812139 0.129114
v 0.182595 0.812139 0.000000
v 0.000000 0.021592 0.000000
v -0.000000 0.787022 0.030631
v -0.021659 0.787022 0.021659
v -0.030631 0.787022 0.000000
v -0.021659 0.787022 -0.021659
v -0.000000 0.787022 -0.030631
v 0.021659 0.787022 -0.021659
v 0.030631 0.787022 0.000000
v 0.021659 0.787022 0.021659
v 0.005324 0.879975 0.034920
v -0.014412 0.966787 0.028686
v -0.020533 1.013058 0.008195
v -0.014839 0.877574 0.028295
v -0.032684 0.962757 0.024063
v -0.036828 1.009464 0.004072
v -0.022370 1.003610 -0.012142
v -0.024226 0.874136 0.009420
v -0.041563 0.955725 0.008469
v -0.044747 1.003193 -0.009834
v -0.017338 0.871674 -0.010647
v -0.035849 0.949811 -0.008961
v -0.039651 0.997919 -0.025379
v 0.001789 0.871630 -0.020151
v -0.018888 0.948478 -0.018018
v -0.024525 0.996730 -0.033456
v 0.021951 0.874032 -0.013526
v -0.000617 0.952508 -0.013395
v -0.008231 1.000324 -0.029333
v 0.031338 0.877470 0.005348
v 0.008263 0.959540 0.002199
v -0.000312 1.006595 -0.015426
v 0.024451 0.879932 0.025415
v 0.002548 0.965454 0.019629
v -0.005408 1.011870 0.000118
vt 0.469762 0.844793
vt 0.440937 0.914384
vt 0.371346 0.844793
vt 0.440937 0.775202
vt 0.371346 0.746377
vt 0.301755 0.775202
vt 0.272930 0.844793
vt 0.301755 0.914384
vt 0.371346 0.943209
vt 0.000016 0.001097
vt 0.000016 0.096155
vt 0.875016 0.096155
vt 0.125016 0.001097
vt 0.125016 0.096155
vt 0.250016 0.001097
vt 0.250016 0.096155
vt 0.375016 0.001097
vt 0.375016 0.096155
vt 0.500016 0.001097
vt 0.500016 0.096155
vt 0.625016 0.001097
vt 0.625016 0.096155
vt 0.750016 0.001097
vt 0.750016 0.096155
vt 0.000016 0.207532
vt 0.875016 0.207532
vt 0.125016 0.207532
vt 0.250016 0.207532
vt 0.375016 0.207532
vt 0.500016 0.207532
vt 0.625016 0.207532
vt 0.750016 0.207532
vt 0.000016 0.322703
vt 0.875016 0.322703
vt 0.125016 0.322703
vt 0.250016 0.322703
vt 0.375016 0.322703
vt 0.500016 0.322703
vt 0.625016 0.322703
vt 0.750016 0.322703
vt 0.000016 0.428092
vt 0.875016 0.428092
vt 0.125016 0.428092
vt 0.250016 0.428092
vt 0.375016 0.428092
vt 0.500016 0.428092
vt 0.625016 0.428092
vt 0.750016 0.428092
vt 0.000016 0.532460
vt 0.875016 0.532460
vt 0.125016 0.532460
vt 0.250016 0.532460
vt 0.375016 0.532460
vt 0.500016 0.532460
vt 0.625016 0.532460
vt 0.750016 0.532460
vt 0.000016 0.622768
vt 0.875016 0.622768
vt 0.125016 0.622768
vt 0.250016 0.622768
vt 0.375016 0.622768
vt 0.500016 0.622768
vt 0.197644 0.918087
vt 0.211324 0.914907
vt 0.214372 0.872213
vt 0.235809 0.873392
vt 0.219952 0.804255
vt 0.214773 0.729355
vt 0.261781 0.929355
vt 0.224132 0.920994
vt 0.049544 0.926175
vt 0.061781 0.929355
vt 0.024132 0.920994
vt 0.037405 0.920626
vt 0.024697 0.915959
vt 0.011324 0.914907
vt -0.002356 0.918087
vt 0.184038 0.923636
vt 0.160112 0.928303
vt 0.076279 0.729355
vt 0.103051 0.729355
vt 0.106798 0.811601
vt 0.086894 0.809476
vt 0.087465 0.888413
vt 0.069321 0.884847
vt 0.045055 0.729355
vt 0.060682 0.806434
vt 0.052982 0.878625
vt 0.014773 0.729355
vt 0.019952 0.804255
vt 0.035809 0.873392
vt 0.189326 0.729355
vt 0.183734 0.804217
vt 0.014372 0.872213
vt 0.167301 0.729355
vt 0.160726 0.806342
vt 0.183078 0.875779
vt 0.146653 0.729355
vt 0.142186 0.809384
vt 0.142920 0.882001
vt 0.125796 0.729355
vt 0.124702 0.811563
vt 0.110523 0.887234
vt 1.000016 0.716607
vt 1.000016 0.622768
vt 1.000016 0.532460
vt 1.000016 0.428092
vt 1.000016 0.322703
vt 1.000016 0.207532
vt 1.000016 0.096155
vt 1.000016 0.001097
vt 0.875016 0.001097
vt 0.750016 0.716607
vt 0.625016 0.716607
vt 0.500016 0.716607
vt 0.375016 0.716607
vt 0.250016 0.716607
vt 0.125016 0.716607
vt 0.875016 0.716607
vt 0.000016 0.716607
vt 0.750016 0.622768
vt 0.625016 0.622768
vn 0.248245 -0.945843 -0.209179
vn 0.027624 -0.945843 -0.323447
vn 0.565148 -0.638660 -0.522227
vn 0.030349 -0.638660 -0.768890
vn -0.209179 -0.945843 -0.248245
vn -0.522227 -0.638660 -0.565148
vn -0.323447 -0.945843 -0.027624
vn -0.768890 -0.638660 -0.030349
vn -0.248245 -0.945843 0.209179
vn -0.565148 -0.638660 0.522227
vn -0.027624 -0.945843 0.323447
vn -0.030349 -0.638660 0.768890
vn 0.209179 -0.945843 0.248245
vn 0.522227 -0.638660 0.565148
vn 0.323447 -0.945843 0.027624
vn 0.768891 -0.638660 0.030349
vn 0.667847 -0.383065 -0.638155
vn 0.020996 -0.383065 -0.923483
vn -0.638155 -0.383065 -0.667847
vn -0.923483 -0.383065 -0.020996
vn -0.667847 -0.383065 0.638155
vn -0.020996 -0.383065 0.923483
vn 0.638155 -0.383065 0.667847
vn 0.923483 -0.383065 0.020996
vn 0.707730 -0.087133 -0.701089
vn 0.004696 -0.087133 -0.996186
vn -0.701089 -0.087133 -0.707730
vn -0.996186 -0.087133 -0.004696
vn -0.707730 -0.087133 0.701089
vn -0.004696 -0.087133 0.996186
vn 0.701089 -0.087133 0.707730
vn 0.996186 -0.087133 0.004696
vn 0.660223 0.314496 -0.682054
vn -0.015436 0.314496 -0.949133
vn -0.682054 0.314496 -0.660223
vn -0.949133 0.314496 0.015436
vn -0.660223 0.314496 0.682054
vn 0.015436 0.314496 0.949133
vn 0.682054 0.314496 0.660223
vn 0.949133 0.314496 -0.015436
vn 0.469388 0.721146 -0.509533
vn -0.028387 0.721146 -0.692202
vn -0.509533 0.721146 -0.469388
vn -0.692202 0.721146 0.028387
vn -0.469388 0.721146 0.509533
vn 0.028387 0.721146 0.692202
vn 0.509533 0.721146 0.469388
vn 0.692202 0.721146 -0.028387
vn 0.096121 0.987987 -0.121009
vn -0.017599 0.987987 -0.153534
vn -0.121009 0.987987 -0.096121
vn -0.153534 0.987987 0.017599
vn -0.096121 0.987987 0.121009
vn 0.017599 0.987987 0.153534
vn 0.121009 0.987987 0.096121
vn 0.153534 0.987987 -0.017599
vn -0.000000 -1.000000 0.000000
vn -0.089713 0.985972 0.140751
vn 0.036089 0.985972 0.162962
vn 0.140750 0.985972 0.089713
vn 0.162962 0.985972 -0.036089
vn 0.089713 0.985972 -0.140750
vn -0.036089 0.985972 -0.162962
vn -0.140750 0.985972 -0.089713
vn -0.162962 0.985972 0.036090
vn -0.076133 0.914225 -0.397991
vn -0.120747 0.904385 -0.409278
vn -0.115501 0.928495 -0.352926
vn -0.054452 0.931395 -0.359915
vn -0.068406 0.945837 -0.317353
vn -0.109820 0.949091 -0.295240
vn -0.154434 0.939251 -0.306525
vn -0.176113 0.922082 -0.344599
vn -0.162159 0.907640 -0.387162
vn -0.382395 -0.038847 0.923182
vn -0.372943 -0.037197 0.927109
vn -0.312949 -0.016216 0.949631
vn -0.310605 -0.014369 0.950431
vn -0.276411 0.124380 0.952957
vn -0.269887 0.129146 0.954192
vn -0.301829 0.352364 0.885855
vn -0.301828 0.352363 0.885855
vn -0.923554 0.026537 0.382549
vn -0.920309 0.027709 0.390209
vn -0.892137 -0.058344 0.447982
vn -0.884201 -0.077065 0.460706
vn -0.859699 -0.063087 0.506890
vn -0.860013 -0.041817 0.508556
vn -0.884636 0.114918 0.451900
vn -0.884635 0.114918 0.451901
vn -0.919569 0.096489 -0.380898
vn -0.922083 0.097693 -0.374459
vn -0.944888 -0.025947 -0.326363
vn -0.947406 -0.065029 -0.313358
vn -0.948575 -0.191530 -0.252035
vn -0.950617 -0.185826 -0.248589
vn -0.952574 -0.162982 -0.256980
vn -0.952575 -0.162981 -0.256980
vn -0.379844 0.121608 -0.917023
vn -0.388728 0.123998 -0.912971
vn -0.438218 0.038399 -0.898048
vn -0.446875 0.020491 -0.894362
vn -0.471259 -0.173185 -0.864825
vn -0.473925 -0.193296 -0.859088
vn -0.465851 -0.318547 -0.825537
vn -0.465851 -0.318547 -0.825537
vn 0.380538 0.105740 -0.918700
vn 0.304139 0.089597 -0.948405
vn 0.369423 0.103215 -0.923511
vn 0.301498 0.087995 -0.949398
vn 0.262487 -0.043009 -0.963977
vn 0.254936 -0.048068 -0.965763
vn 0.290426 -0.260647 -0.920715
vn 0.290426 -0.260647 -0.920715
vn 0.923387 0.032653 -0.382480
vn 0.883125 0.119638 -0.453627
vn 0.919631 0.030865 -0.391569
vn 0.874037 0.133901 -0.467045
vn 0.840120 0.133726 -0.525657
vn 0.840560 0.113337 -0.529730
vn 0.873227 -0.023202 -0.486762
vn 0.873227 -0.023202 -0.486762
vn 0.923468 -0.029841 0.382513
vn 0.943539 0.091973 0.318239
vn 0.926357 -0.031445 0.375332
vn 0.944663 0.120408 0.305146
vn 0.939196 0.256948 0.227793
vn 0.941036 0.255426 0.221832
vn 0.941164 0.254700 0.222122
vn 0.941164 0.254700 0.222122
vn 0.381889 -0.064416 0.921961
vn 0.390218 -0.062473 0.918601
vn 0.441191 0.059563 0.895435
vn 0.444529 0.050621 0.894333
vn 0.467802 0.249781 0.847804
vn 0.470021 0.269165 0.840613
vn 0.454442 0.410264 0.790674
vn 0.454442 0.410264 0.790674
s 1
g pSphere1
usemtl initialShadingGroup
f 1/112/1 2/111/2 9/12/3
f 9/12/3 2/111/2 10/110/4
f 2/10/2 3/13/5 10/11/4
f 10/11/4 3/13/5 11/14/6
f 3/13/5 4/15/7 11/14/6
f 11/14/6 4/15/7 12/16/8
f 4/15/7 5/17/9 12/16/8
f 12/16/8 5/17/9 13/18/10
f 5/17/9 6/19/11 13/18/10
f 13/18/10 6/19/11 14/20/12
f 6/19/11 7/21/13 14/20/12
f 14/20/12 7/21/13 15/22/14
f 7/21/13 8/23/15 15/22/14
f 15/22/14 8/23/15 16/24/16
f 8/23/15 1/112/1 16/24/16
f 16/24/16 1/112/1 9/12/3
f 9/12/3 10/110/4 17/26/17
f 17/26/17 10/110/4 18/109/18
f 10/11/4 11/14/6 18/25/18
f 18/25/18 11/14/6 19/27/19
f 11/14/6 12/16/8 19/27/19
f 19/27/19 12/16/8 20/28/20
f 12/16/8 13/18/10 20/28/20
f 20/28/20 13/18/10 21/29/21
f 13/18/10 14/20/12 21/29/21
f 21/29/21 14/20/12 22/30/22
f 14/20/12 15/22/14 22/30/22
f 22/30/22 15/22/14 23/31/23
f 15/22/14 16/24/16 23/31/23
f 23/31/23 16/24/16 24/32/24
f 16/24/16 9/12/3 24/32/24
f 24/32/24 9/12/3 17/26/17
f 17/26/17 18/109/18 25/34/25
f 25/34/25 18/109/18 26/108/26
f 18/25/18 19/27/19 26/33/26
f 26/33/26 19/27/19 27/35/27
f 19/27/19 20/28/20 27/35/27
f 27/35/27 20/28/20 28/36/28
f 20/28/20 21/29/21 28/36/28
f 28/36/28 21/29/21 29/37/29
f 21/29/21 22/30/22 29/37/29
f 29/37/29 22/30/22 30/38/30
f 22/30/22 23/31/23 30/38/30
f 30/38/30 23/31/23 31/39/31
f 23/31/23 24/32/24 31/39/31
f 31/39/31 24/32/24 32/40/32
f 24/32/24 17/26/17 32/40/32
f 32/40/32 17/26/17 25/34/25
f 25/34/25 26/108/26 33/42/33
f 33/42/33 26/108/26 34/107/34
f 26/33/26 27/35/27 34/41/34
f 34/41/34 27/35/27 35/43/35
f 27/35/27 28/36/28 35/43/35
f 35/43/35 28/36/28 36/44/36
f 28/36/28 29/37/29 36/44/36
f 36/44/36 29/37/29 37/45/37
f 29/37/29 30/38/30 37/45/37
f 37/45/37 30/38/30 38/46/38
f 30/38/30 31/39/31 38/46/38
f 38/46/38 31/39/31 39/47/39
f 31/39/31 32/40/32 39/47/39
f 39/47/39 32/40/32 40/48/40
f 32/40/32 25/34/25 40/48/40
f 40/48/40 25/34/25 33/42/33
f 33/42/33 34/107/34 41/50/41
f 41/50/41 34/107/34 42/106/42
f 34/41/34 35/43/35 42/49/42
f 42/49/42 35/43/35 43/51/43
f 35/43/35 36/44/36 43/51/43
f 43/51/43 36/44/36 44/52/44
f 36/44/36 37/45/37 44/52/44
f 44/52/44 37/45/37 45/53/45
f 37/45/37 38/46/38 45/53/45
f 45/53/45 38/46/38 46/54/46
f 38/46/38 39/47/39 46/54/46
f 46/54/46 39/47/39 47/55/47
f 39/47/39 40/48/40 47/55/47
f 47/55/47 40/48/40 48/56/48
f 40/48/40 33/42/33 48/56/48
f 48/56/48 33/42/33 41/50/41
f 41/50/41 42/106/42 49/58/49
f 49/58/49 42/106/42 50/105/50
f 42/49/42 43/51/43 50/57/50
f 50/57/50 43/51/43 51/59/51
f 43/51/43 44/52/44 51/59/51
f 51/59/51 44/52/44 52/60/52
f 44/52/44 45/53/45 52/60/52
f 52/60/52 45/53/45 53/61/53
f 45/53/45 46/54/46 53/61/53
f 53/61/53 46/54/46 54/62/54
f 46/54/46 47/55/47 54/62/54
f 54/62/54 47/55/47 55/122/55
f 47/55/47 48/56/48 55/122/55
f 55/122/55 48/56/48 56/121/56
f 48/56/48 41/50/41 56/121/56
f 56/121/56 41/50/41 49/58/49
f 2/1/2 1/2/1 57/3/57
f 3/4/5 2/1/2 57/3/57
f 4/5/7 3/4/5 57/3/57
f 5/6/9 4/5/7 57/3/57
f 6/7/11 5/6/9 57/3/57
f 7/8/13 6/7/11 57/3/57
f 8/9/15 7/8/13 57/3/57
f 1/2/1 8/9/15 57/3/57
f 49/58/49 50/105/50 63/119/58
f 63/119/58 50/105/50 62/104/59
f 50/57/50 51/59/51 62/120/59
f 62/120/59 51/59/51 61/118/60
f 51/59/51 52/60/52 61/118/60
f 61/118/60 52/60/52 60/117/61
f 52/60/52 53/61/53 60/117/61
f 60/117/61 53/61/53 59/116/62
f 53/61/53 54/62/54 59/116/62
f 59/116/62 54/62/54 58/115/63
f 54/62/54 55/122/55 58/115/63
f 58/115/63 55/122/55 65/114/64
f 55/122/55 56/121/56 65/114/64
f 65/114/64 56/121/56 64/113/65
f 56/121/56 49/58/49 64/113/65
f 64/113/65 49/58/49 63/119/58
f 71/71/66 68/72/67 72/73/68
f 75/74/69 71/71/66 72/73/68
f 78/75/70 75/74/69 72/73/68
f 81/76/71 78/75/70 72/73/68
f 84/77/72 81/76/71 72/73/68
f 87/78/73 84/63/72 72/70/68
f 90/79/74 87/78/73 72/70/68
f 68/69/67 90/79/74 72/70/68
f 59/80/75 58/81/76 69/83/77
f 69/83/77 58/81/76 66/82/78
f 66/82/78 67/84/79 69/83/77
f 69/83/77 67/84/79 70/85/80
f 70/85/80 67/84/79 71/71/81
f 71/71/81 67/84/79 68/72/82
f 60/86/83 59/80/84 73/87/85
f 73/87/85 59/80/84 69/83/86
f 73/87/85 69/83/86 74/88/87
f 74/88/87 69/83/86 70/85/88
f 74/88/87 70/85/88 75/74/89
f 75/74/89 70/85/88 71/71/90
f 61/89/91 60/86/92 76/90/93
f 76/90/93 60/86/92 73/87/94
f 76/90/93 73/87/94 77/91/95
f 77/91/95 73/87/94 74/88/96
f 77/91/95 74/88/96 78/75/97
f 78/75/97 74/88/96 75/74/98
f 62/92/99 61/68/100 79/93/101
f 79/93/101 61/68/100 76/67/102
f 79/93/101 76/67/102 80/65/103
f 80/65/103 76/67/102 77/66/104
f 80/94/103 77/91/104 81/76/105
f 81/76/105 77/91/104 78/75/106
f 62/92/107 79/93/108 63/95/109
f 63/95/109 79/93/108 82/96/110
f 82/96/110 79/93/108 83/97/111
f 83/97/111 79/93/108 80/65/112
f 83/97/111 80/65/112 84/63/113
f 84/63/113 80/65/112 81/64/114
f 63/95/115 82/96/116 64/98/117
f 64/98/117 82/96/116 85/99/118
f 82/96/116 83/97/119 85/99/118
f 85/99/118 83/97/119 86/100/120
f 86/100/120 83/97/119 87/78/121
f 87/78/121 83/97/119 84/63/122
f 64/98/123 85/99/124 65/101/125
f 65/101/125 85/99/124 88/102/126
f 85/99/124 86/100/127 88/102/126
f 88/102/126 86/100/127 89/103/128
f 89/103/128 86/100/127 90/79/129
f 90/79/129 86/100/127 87/78/130
f 58/81/131 65/101/132 66/82/133
f 66/82/133 65/101/132 88/102/134
f 88/102/134 89/103/135 66/82/133
f 66/82/133 89/103/135 67/84/136
f 67/84/136 89/103/135 68/72/137
f 68/72/137 89/103/135 90/79/138
