# This file uses centimeters as units for non-parametric coordinates.

mtllib book.mtl
g default
v -1.336923 0.013011 2.129177
v 1.336923 0.013010 2.129177
v -1.336923 0.040699 2.129177
v 1.336923 0.040699 2.129177
v -1.220784 0.040699 2.045881
v 1.220784 0.040699 2.045881
v -1.336923 0.040699 1.363920
v -1.220784 0.040699 1.363920
v 1.220784 0.040699 1.363920
v 1.336923 0.040699 1.363920
v -1.336923 0.040699 0.681960
v -1.220784 0.040699 0.681960
v 1.220784 0.040699 0.681960
v 1.336923 0.040699 0.681960
v -1.336923 0.040699 0.000000
v -1.220784 0.040699 0.000000
v 1.220784 0.040699 0.000000
v 1.336923 0.040699 0.000000
v -1.336923 0.040699 -0.681960
v -1.220784 0.040699 -0.681960
v 1.220784 0.040699 -0.681960
v 1.336923 0.040699 -0.681960
v -1.336923 0.040699 -1.363920
v -1.220784 0.040699 -1.363920
v 1.220784 0.040699 -1.363920
v 1.336923 0.040699 -1.363920
v -1.336923 0.040699 -2.129177
v -1.220784 0.040699 -2.045881
v 1.220784 0.040699 -2.045881
v 1.336923 0.040699 -2.129177
v -1.336923 0.013011 -2.129177
v 1.336923 0.013010 -2.129177
v -1.336923 0.013011 -1.363920
v 1.336923 0.013010 -1.363920
v -1.336923 0.013011 -0.681960
v 1.336923 0.013010 -0.681960
v -1.336923 0.013011 -0.000000
v 1.336923 0.013010 -0.000000
v -1.336923 0.013011 0.681960
v 1.336923 0.013010 0.681960
v -1.336923 0.013011 1.363920
v 1.336923 0.013010 1.363920
v -1.220784 0.230814 2.045881
v 1.220784 0.230813 2.045881
v 1.220784 0.285653 1.363920
v -1.220784 0.285654 1.363920
v 1.220784 0.254316 0.681960
v -1.220784 0.254317 0.681960
v 1.220784 0.081962 0.000000
v -1.220784 0.081963 0.000000
v 1.220784 0.254316 -0.681960
v -1.220784 0.254317 -0.681960
v 1.220784 0.285653 -1.363920
v -1.220784 0.285654 -1.363920
v 1.220784 0.230813 -2.045881
v -1.220784 0.230814 -2.045881
vt 0.006714 0.997904
vt 0.007467 0.999812
vt 0.006626 0.507560
vt 0.006791 0.505389
vt 0.039037 0.963543
vt 0.885926 0.000068
vt 0.885927 0.000068
vt 0.039037 0.538212
vt 0.806926 0.000068
vt 0.806926 0.000068
vt 0.157837 0.963543
vt 0.885927 0.166712
vt 0.806926 0.166712
vt 0.157837 0.997475
vt 0.157837 0.504280
vt 0.885926 0.166712
vt 0.806926 0.166712
vt 0.157837 0.538212
vt 0.276637 0.963543
vt 0.885927 0.333356
vt 0.806926 0.333356
vt 0.276637 0.997475
vt 0.276637 0.504280
vt 0.885926 0.333356
vt 0.806926 0.333356
vt 0.276637 0.538212
vt 0.395437 0.963543
vt 0.885927 0.500000
vt 0.806926 0.500000
vt 0.395437 0.997475
vt 0.395437 0.504280
vt 0.395437 0.538212
vt 0.514238 0.963543
vt 0.514238 0.997475
vt 0.514238 0.504280
vt 0.514238 0.538212
vt 0.633038 0.963543
vt 0.633038 0.997475
vt 0.633038 0.504280
vt 0.633038 0.538212
vt 0.751838 0.963543
vt 0.779570 0.997452
vt 0.780753 0.504943
vt 0.751838 0.538212
vt 0.782219 0.996672
vt 0.782837 0.507358
vt 0.643647 0.996683
vt 0.643647 0.507012
vt 0.519558 0.996683
vt 0.519558 0.507012
vt 0.395469 0.996683
vt 0.395469 0.507012
vt 0.271380 0.996683
vt 0.271380 0.507012
vt 0.147291 0.996683
vt 0.147291 0.507012
vt 0.051449 0.046019
vt 0.051449 0.463655
vt 0.168100 0.463655
vt 0.168100 0.046019
vt 0.284751 0.463655
vt 0.284751 0.046019
vt 0.401402 0.463655
vt 0.401402 0.046019
vt 0.518053 0.463655
vt 0.518053 0.046019
vt 0.634703 0.463655
vt 0.634703 0.046019
vt 0.751354 0.463655
vt 0.751354 0.046019
vt 0.885926 0.500000
vt 0.806926 0.500000
vt 0.885927 0.666644
vt 0.806926 0.666644
vt 0.885926 0.666644
vt 0.806926 0.666644
vt 0.885927 0.833288
vt 0.806926 0.833288
vt 0.885926 0.833288
vt 0.806926 0.833288
vt 0.885926 0.999932
vt 0.806926 0.999932
vt 0.885926 0.999932
vt 0.806925 0.999932
vn 0.000000 0.000000 1.000000
vn 0.010348 -0.999293 0.036156
vn 0.000000 0.000000 1.000000
vn 0.275153 0.000000 0.961400
vn 0.000000 1.000000 0.000000
vn 0.000000 1.000000 -0.000000
vn 0.000000 1.000000 0.000001
vn 0.000000 1.000000 -0.000000
vn -0.000000 1.000000 0.000000
vn -0.000000 1.000000 0.000000
vn 0.000000 0.996782 0.080156
vn 0.000000 0.996782 0.080156
vn 0.000000 0.999852 0.017229
vn 0.000000 0.999852 0.017229
vn -0.000000 1.000000 0.000000
vn -0.000000 1.000000 0.000000
vn -0.000000 1.000000 0.000000
vn -0.000000 1.000000 0.000000
vn 0.000000 0.989032 -0.147704
vn 0.000000 0.989032 -0.147704
vn -0.000000 1.000000 0.000000
vn -0.000000 1.000000 0.000000
vn -0.000000 1.000000 0.000000
vn -0.000000 1.000000 0.000000
vn 0.000000 0.969516 -0.245029
vn 0.000000 0.969516 -0.245029
vn -0.000000 1.000000 0.000000
vn -0.000000 1.000000 0.000000
vn -0.000000 1.000000 0.000000
vn -0.000000 1.000000 0.000000
vn 0.000000 0.969516 0.245029
vn 0.000000 0.969516 0.245029
vn 0.000000 0.989032 0.147704
vn 0.000000 0.989032 0.147704
vn -0.000000 1.000000 0.000000
vn -0.000000 1.000000 0.000000
vn -0.000000 1.000000 0.000000
vn -0.000000 1.000000 0.000000
vn 0.000000 0.999852 -0.017229
vn 0.000000 0.999852 -0.017229
vn -0.000000 1.000000 0.000000
vn -0.000000 1.000000 0.000000
vn 0.000000 1.000000 -0.000001
vn 0.000000 1.000000 -0.000000
vn 0.000000 0.996782 -0.080156
vn 0.000000 0.996782 -0.080156
vn 0.000000 1.000000 0.000000
vn 0.000000 1.000000 0.000000
vn 0.000000 0.000000 -1.000000
vn 0.275153 0.000000 -0.961401
vn 0.000000 0.000000 -1.000000
vn 0.275153 0.000000 -0.961400
vn -0.000000 -1.000000 0.000000
vn -0.000000 -1.000000 0.000000
vn -0.000000 -1.000000 0.000000
vn 0.010354 -0.999946 0.000000
vn -0.000000 -1.000000 0.000000
vn 0.010354 -0.999946 0.000000
vn -0.000000 -1.000000 0.000000
vn 0.010354 -0.999946 0.000000
vn -0.000000 -1.000000 0.000000
vn 0.010354 -0.999946 0.000000
vn -0.000000 -1.000000 0.000000
vn 0.010354 -0.999946 0.000000
vn -0.000000 -1.000000 0.000000
vn 1.000000 0.000000 0.000000
vn 1.000000 0.000000 0.000000
vn 1.000000 -0.000001 0.000000
vn 1.000000 0.000000 0.000000
vn 1.000000 0.000000 0.000000
vn -1.000000 0.000000 0.000000
vn -1.000000 -0.000000 0.000000
vn -1.000000 0.000000 0.000000
vn -1.000000 -0.000000 0.000000
vn -1.000000 -0.000000 0.000000
vn -1.000000 -0.000000 0.000000
vn -1.000000 0.000001 0.000000
vn -1.000000 0.000001 0.000000
vn -1.000000 -0.000000 0.000000
vn -1.000000 -0.000000 0.000000
vn -1.000000 -0.000000 0.000000
vn -1.000000 -0.000000 0.000000
vn -1.000000 -0.000000 0.000000
vn -1.000000 0.000000 0.000000
vn 0.000000 0.000000 1.000000
vn -0.000000 0.000000 1.000000
vn -0.000000 0.000000 1.000000
vn -0.000000 0.000000 1.000000
vn 1.000000 0.000000 0.000000
vn 1.000000 -0.000001 -0.000000
vn 1.000000 -0.000000 -0.000000
vn 1.000000 -0.000001 -0.000000
vn -1.000000 0.000002 0.000000
vn -1.000000 0.000001 0.000000
vn -1.000000 0.000001 0.000000
vn -1.000000 0.000001 0.000000
vn 1.000000 -0.000001 0.000000
vn 1.000000 -0.000001 0.000000
vn -1.000000 0.000001 -0.000000
vn -1.000000 0.000001 -0.000000
vn 1.000000 0.000000 0.000000
vn 1.000000 -0.000001 0.000000
vn -1.000000 0.000000 0.000000
vn -1.000000 0.000001 -0.000000
vn 1.000000 -0.000001 -0.000000
vn 1.000000 -0.000001 -0.000000
vn -1.000000 0.000001 0.000000
vn -1.000000 0.000001 0.000000
vn 1.000000 -0.000001 0.000000
vn 1.000000 -0.000001 0.000000
vn -1.000000 0.000001 -0.000000
vn -1.000000 0.000001 -0.000000
vn 1.000000 -0.000002 0.000000
vn 1.000000 -0.000001 0.000000
vn 0.000000 0.000000 -1.000000
vn -0.000000 0.000000 -1.000000
vn -0.000000 0.000000 -1.000000
vn -0.000000 0.000000 -1.000000
vn -1.000000 0.000002 0.000000
vn -1.000000 0.000001 -0.000000
s 1
g pCube1
usemtl initialShadingGroup
f 1/1/1 2/3/2 3/2/3
f 3/2/3 2/3/2 4/4/4
s 2
f 3/2/5 4/4/6 5/5/7
f 5/5/7 4/4/6 6/8/8
f 3/2/5 5/5/7 7/14/9
f 7/14/9 5/5/7 8/11/10
s 3
f 43/57/11 44/58/12 46/60/13
f 46/60/13 44/58/12 45/59/14
s 2
f 4/4/6 10/15/15 6/8/8
f 6/8/8 10/15/15 9/18/16
f 7/14/9 8/11/10 11/22/17
f 11/22/17 8/11/10 12/19/18
s 3
f 46/60/13 45/59/14 48/62/19
f 48/62/19 45/59/14 47/61/20
s 2
f 9/18/16 10/15/15 13/26/21
f 13/26/21 10/15/15 14/23/22
f 11/22/17 12/19/18 15/30/23
f 15/30/23 12/19/18 16/27/24
s 3
f 48/62/19 47/61/20 50/64/25
f 50/64/25 47/61/20 49/63/26
s 2
f 13/26/21 14/23/22 17/32/27
f 17/32/27 14/23/22 18/31/28
f 15/30/23 16/27/24 19/34/29
f 19/34/29 16/27/24 20/33/30
s 4
f 50/64/31 49/63/32 52/66/33
f 52/66/33 49/63/32 51/65/34
s 2
f 17/32/27 18/31/28 21/36/35
f 21/36/35 18/31/28 22/35/36
f 19/34/29 20/33/30 23/38/37
f 23/38/37 20/33/30 24/37/38
s 4
f 52/66/33 51/65/34 54/68/39
f 54/68/39 51/65/34 53/67/40
s 2
f 21/36/35 22/35/36 25/40/41
f 25/40/41 22/35/36 26/39/42
f 24/37/38 28/41/43 23/38/37
f 23/38/37 28/41/43 27/42/44
s 4
f 54/68/39 53/67/40 56/70/45
f 56/70/45 53/67/40 55/69/46
s 2
f 25/40/41 26/39/42 29/44/47
f 29/44/47 26/39/42 30/43/48
f 28/41/43 29/44/47 27/42/44
f 27/42/44 29/44/47 30/43/48
s 1
f 27/42/49 30/43/50 31/45/51
f 31/45/51 30/43/50 32/46/52
f 31/45/53 32/46/54 33/47/55
f 33/47/55 32/46/54 34/48/56
f 33/47/55 34/48/56 35/49/57
f 35/49/57 34/48/56 36/50/58
f 35/49/57 36/50/58 37/51/59
f 37/51/59 36/50/58 38/52/60
f 37/51/59 38/52/60 39/53/61
f 39/53/61 38/52/60 40/54/62
f 39/53/61 40/54/62 41/55/63
f 41/55/63 40/54/62 42/56/64
f 41/55/63 42/56/64 1/1/65
f 1/1/65 42/56/64 2/3/2
f 34/48/56 32/46/52 26/39/66
f 26/39/66 32/46/52 30/43/50
f 36/50/58 34/48/56 22/35/67
f 22/35/67 34/48/56 26/39/66
f 38/52/60 36/50/58 18/31/68
f 18/31/68 36/50/58 22/35/67
f 40/54/62 38/52/60 14/23/69
f 14/23/69 38/52/60 18/31/68
f 42/56/64 40/54/62 10/15/70
f 10/15/70 40/54/62 14/23/69
f 2/3/2 42/56/64 4/4/4
f 4/4/4 42/56/64 10/15/70
s 7
f 31/45/71 33/47/72 27/42/73
f 27/42/73 33/47/72 23/38/74
f 33/47/72 35/49/75 23/38/74
f 23/38/74 35/49/75 19/34/76
f 35/49/75 37/51/77 19/34/76
f 19/34/76 37/51/77 15/30/78
f 37/51/77 39/53/79 15/30/78
f 15/30/78 39/53/79 11/22/80
f 39/53/79 41/55/81 11/22/80
f 11/22/80 41/55/81 7/14/82
f 41/55/81 1/1/83 7/14/82
f 7/14/82 1/1/83 3/2/84
s 8
f 5/6/85 6/7/86 43/10/87
f 43/10/87 6/7/86 44/9/88
s 9
f 6/7/89 9/12/90 44/9/91
f 44/9/91 9/12/90 45/13/92
s 10
f 5/6/93 43/10/94 8/16/95
f 8/16/95 43/10/94 46/17/96
s 9
f 13/20/97 47/21/98 9/12/90
f 9/12/90 47/21/98 45/13/92
s 10
f 12/24/99 8/16/95 48/25/100
f 48/25/100 8/16/95 46/17/96
s 9
f 17/28/101 49/29/102 13/20/97
f 13/20/97 49/29/102 47/21/98
s 10
f 16/71/103 12/24/99 50/72/104
f 50/72/104 12/24/99 48/25/100
s 9
f 17/28/101 21/73/105 49/29/102
f 49/29/102 21/73/105 51/74/106
s 10
f 16/71/103 50/72/104 20/75/107
f 20/75/107 50/72/104 52/76/108
s 9
f 21/73/105 25/77/109 51/74/106
f 51/74/106 25/77/109 53/78/110
s 10
f 20/75/107 52/76/108 24/79/111
f 24/79/111 52/76/108 54/80/112
s 9
f 29/81/113 55/82/114 25/77/109
f 25/77/109 55/82/114 53/78/110
s 13
f 29/81/115 28/83/116 55/82/117
f 55/82/117 28/83/116 56/84/118
s 10
f 28/83/119 24/79/111 56/84/120
f 56/84/120 24/79/111 54/80/112
