# This file uses centimeters as units for non-parametric coordinates.

mtllib stand.mtl
g default
v -1.453313 -0.105060 3.189477
v 1.153349 -0.105060 3.189477
v -1.453313 7.005963 3.189477
v 1.153350 7.005963 3.189477
v -1.453313 8.130396 3.189477
v 1.153350 8.130397 3.189477
v 1.153350 10.875548 3.189477
v -1.170753 8.130397 1.664392
v 1.435910 10.875548 1.664392
v -1.106120 8.130397 0.139308
v 1.500542 10.875548 0.139308
v -1.170753 8.130397 -1.385776
v 1.435910 10.875548 -1.385776
v -1.453313 8.130396 -2.910861
v 1.153350 10.875548 -2.910861
v 1.153350 8.130397 -2.910861
v -1.453313 7.005963 -2.910861
v 1.153350 7.005963 -2.910861
v -1.453313 -0.105060 -2.910861
v 1.153349 -0.105060 -2.910861
v -1.170754 -0.105060 -1.385776
v 1.435909 -0.105060 -1.385776
v -1.106121 -0.105060 0.139308
v 1.500541 -0.105060 0.139308
v -1.170754 -0.105060 1.664392
v 1.435909 -0.105060 1.664392
v 1.435909 7.005963 -1.385776
v 1.500542 7.005964 0.139308
v 1.435909 7.005963 1.664392
v 1.435909 8.130397 -1.385776
v 1.500542 8.130397 0.139308
v 1.435909 8.130397 1.664392
v -1.170753 7.005963 -1.385776
v -1.106121 7.005963 0.139308
v -1.170753 7.005963 1.664392
v -4.782345 -0.105060 -2.908912
v -4.754827 -0.105060 -1.378986
v -4.751337 -0.105060 0.139308
v -4.754827 -0.105060 1.657601
v -4.782345 -0.105060 3.187528
v -4.754827 7.005963 -1.378986
v -4.782344 7.005963 -2.908912
v -4.751337 7.005963 0.139308
v -4.754827 7.005963 1.657601
v -4.782344 7.005963 3.187528
vt 0.967428 0.449240
vt 0.541272 0.004019
vt 0.573001 0.763752
vt 0.683705 0.004019
vt 0.006955 0.682043
vt 0.683705 0.392578
vt 0.006955 0.897499
vt 0.091955 0.897499
vt 0.091955 0.682043
vt 0.176955 0.897499
vt 0.176955 0.682043
vt 0.261955 0.897499
vt 0.261955 0.682043
vt 0.346955 0.897499
vt 0.346955 0.682043
vt 0.541272 0.392578
vt 0.683705 0.454019
vt 0.541272 0.454019
vt 0.967428 0.342415
vt 0.904928 0.357542
vt 0.904928 0.437660
vt 0.842428 0.354893
vt 0.842428 0.435011
vt 0.779928 0.357542
vt 0.779928 0.437660
vt 0.717428 0.342415
vt 0.717428 0.449240
vt 0.904650 0.584540
vt 0.253827 0.006173
vt 0.337161 0.006173
vt 0.337161 0.394732
vt 0.253827 0.394732
vt 0.170494 0.006173
vt 0.170494 0.394732
vt 0.087161 0.006173
vt 0.087161 0.394732
vt 0.003827 0.006173
vt 0.003827 0.394732
vt 0.337161 0.456173
vt 0.253827 0.456173
vt 0.170494 0.456173
vt 0.087161 0.456173
vt 0.003827 0.456173
vt 0.337161 0.606173
vt 0.967348 0.585668
vt 0.842428 0.584397
vt 0.780206 0.584540
vt 0.717508 0.585668
vt 0.645717 0.997942
vt 0.645717 0.609383
vt 0.729315 0.997942
vt 0.557252 0.848752
vt 0.371710 0.848643
vt 0.373244 0.763373
vt 0.576603 0.678752
vt 0.346955 0.619374
vt 0.261955 0.619374
vt 0.176955 0.619374
vt 0.091955 0.619374
vt 0.729315 0.609383
vt 0.812277 0.997942
vt 0.978837 0.609383
vt 0.895239 0.609383
vt 0.895239 0.997942
vt 0.978837 0.997942
vt 0.812277 0.609383
vt 0.253827 0.606173
vt 0.170494 0.606173
vt 0.087161 0.606173
vt 0.003827 0.606173
vt 0.683705 0.604019
vt 0.541272 0.454019
vt 0.683705 0.604019
vt 0.683705 0.454019
vt 0.683705 0.392578
vt 0.541272 0.392578
vt 0.683705 0.004019
vt 0.541272 0.004019
vt 0.359368 0.004019
vt 0.359368 0.392578
vt 0.359368 0.392578
vt 0.359368 0.004019
vt 0.006955 0.619374
vt 0.261955 0.897499
vt 0.176955 0.897499
vt 0.091955 0.897499
vt 0.373438 0.678752
vt 0.573001 0.593752
vt 0.373244 0.594130
vt 0.557252 0.508752
vt 0.371710 0.508860
vn -0.000328 0.000000 1.000000
vn 0.000000 0.000000 1.000000
vn -0.000307 0.000000 1.000000
vn 0.000000 0.000000 1.000000
vn 0.000000 0.000000 1.000000
vn 0.000000 0.000000 1.000000
vn 0.000000 0.000000 1.000000
vn -0.718704 0.682447 -0.133157
vn -0.718704 0.682447 -0.133158
vn -0.722555 0.686103 -0.084716
vn -0.722858 0.686391 -0.079653
vn -0.725162 0.688578 0.000000
vn -0.725162 0.688578 0.000000
vn -0.722858 0.686391 0.079653
vn -0.722555 0.686103 0.084716
vn -0.718704 0.682447 0.133158
vn -0.718704 0.682447 0.133157
vn 0.000000 0.000000 -1.000000
vn 0.000000 0.000000 -1.000000
vn 0.000000 0.000000 -1.000000
vn -0.000307 0.000000 -1.000000
vn 0.000000 0.000000 -1.000000
vn -0.000328 0.000000 -1.000000
vn 0.000000 0.000000 -1.000000
vn 0.000000 -1.000000 -0.000000
vn 0.000000 -1.000000 0.000000
vn 0.000000 -1.000000 -0.000000
vn 0.000000 -1.000000 0.000000
vn 0.000000 -1.000000 0.000000
vn 0.000000 -1.000000 0.000000
vn 0.000000 -1.000000 -0.000000
vn 0.000000 -1.000000 0.000000
vn 0.000000 -1.000000 -0.000000
vn 0.000000 -1.000000 0.000000
vn 0.993584 -0.000000 -0.113097
vn 0.983266 -0.000000 -0.182174
vn 0.993584 -0.000000 -0.113097
vn 0.983266 -0.000000 -0.182174
vn 1.000000 -0.000000 -0.000000
vn 1.000000 -0.000000 -0.000000
vn 0.993584 -0.000000 0.113097
vn 0.993584 -0.000000 0.113097
vn 0.983266 -0.000000 0.182174
vn 0.983266 -0.000000 0.182174
vn 0.993584 -0.000000 -0.113097
vn 0.983266 -0.000000 -0.182174
vn 1.000000 -0.000000 -0.000000
vn 0.993584 -0.000000 0.113097
vn 0.983266 -0.000000 0.182174
vn 0.993584 -0.000000 -0.113097
vn 0.983266 0.000000 -0.182174
vn 1.000000 -0.000000 -0.000000
vn 0.993584 -0.000000 0.113097
vn 0.983266 -0.000000 0.182174
vn -0.999838 0.000000 0.017983
vn -0.999948 0.000000 0.010172
vn -0.999838 0.000000 0.017983
vn -0.999948 0.000000 0.010172
vn -1.000000 0.000000 -0.000000
vn -1.000000 0.000000 0.000000
vn -0.999948 0.000000 -0.010172
vn -0.999948 0.000000 -0.010172
vn -0.999838 0.000000 -0.017983
vn -0.999838 0.000000 -0.017983
vn -0.983266 0.000000 0.182174
vn -0.993584 0.000000 0.113097
vn -0.983266 0.000000 0.182174
vn -0.993584 0.000000 0.113097
vn -1.000000 0.000000 0.000000
vn -1.000000 0.000000 0.000000
vn -0.993584 0.000000 -0.113097
vn -0.993584 0.000000 -0.113097
vn -0.983266 0.000000 -0.182174
vn -0.983266 0.000000 -0.182174
vn 0.000000 -1.000000 0.000000
vn 0.000000 -1.000000 0.000001
vn 0.000000 -1.000000 -0.000000
vn 0.000000 -1.000000 -0.000000
vn 0.000000 -1.000000 -0.000001
vn -0.000000 1.000000 0.000000
vn -0.000000 1.000000 -0.000000
vn -0.000000 1.000000 -0.000000
vn -0.000000 1.000000 -0.000000
vn -0.000585 0.000000 -1.000000
vn -0.000585 0.000000 -1.000000
vn -0.000000 1.000000 -0.000000
vn -0.000000 1.000000 0.000000
vn -0.000000 1.000000 -0.000000
vn -0.000000 1.000000 -0.000000
vn -0.000585 0.000000 1.000000
vn -0.000585 0.000000 1.000000
vn -0.000000 1.000000 -0.000000
vn -0.000000 1.000000 0.000000
s 1
g pCube1
usemtl lambert2SG
f 1/2/1 2/4/2 3/16/3
f 3/16/3 2/4/2 4/6/4
f 3/16/3 4/6/4 5/18/5
f 5/18/5 4/6/4 6/17/6
f 6/17/6 7/71/7 5/18/5
s 2
f 5/5/8 7/7/9 8/9/10
f 8/9/10 7/7/9 9/8/11
f 8/9/10 9/86/11 10/11/12
f 10/11/12 9/86/11 11/10/13
f 11/85/13 13/12/14 10/11/12
f 10/11/12 13/12/14 12/13/15
f 13/84/14 15/14/16 12/13/15
f 12/13/15 15/14/16 14/15/17
s 3
f 14/72/18 15/73/19 16/74/20
f 14/72/18 16/74/20 17/76/21
f 17/76/21 16/74/20 18/75/22
f 17/76/21 18/75/22 19/78/23
f 19/78/23 18/75/22 20/77/24
s 4
f 19/1/25 20/19/26 21/21/27
f 21/21/27 20/19/26 22/20/28
f 21/21/27 22/20/28 23/23/29
f 23/23/29 22/20/28 24/22/30
f 24/22/30 26/24/31 23/23/29
f 23/23/29 26/24/31 25/25/32
f 26/24/31 2/26/33 25/25/32
f 25/25/32 2/26/33 1/27/34
s 5
f 22/29/35 20/30/36 27/32/37
f 27/32/37 20/30/36 18/31/38
f 24/33/39 22/29/35 28/34/40
f 28/34/40 22/29/35 27/32/37
f 26/35/41 24/33/39 29/36/42
f 29/36/42 24/33/39 28/34/40
f 2/37/43 26/35/41 4/38/44
f 4/38/44 26/35/41 29/36/42
f 27/32/37 18/31/38 30/40/45
f 30/40/45 18/31/38 16/39/46
f 28/34/40 27/32/37 31/41/47
f 31/41/47 27/32/37 30/40/45
f 29/36/42 28/34/40 32/42/48
f 32/42/48 28/34/40 31/41/47
f 4/38/44 29/36/42 6/43/49
f 6/43/49 29/36/42 32/42/48
f 30/40/45 16/39/46 13/67/50
f 13/67/50 16/39/46 15/44/51
f 31/41/47 30/40/45 11/68/52
f 11/68/52 30/40/45 13/67/50
f 32/42/48 31/41/47 9/69/53
f 9/69/53 31/41/47 11/68/52
f 6/43/49 32/42/48 7/70/54
f 7/70/54 32/42/48 9/69/53
s 6
f 36/62/55 37/63/56 42/65/57
f 42/65/57 37/63/56 41/64/58
f 37/63/56 38/66/59 41/64/58
f 41/64/58 38/66/59 43/61/60
f 38/66/59 39/60/61 43/61/60
f 43/61/60 39/60/61 44/51/62
f 39/60/61 40/50/63 44/51/62
f 44/51/62 40/50/63 45/49/64
s 7
f 17/56/65 33/57/66 14/15/67
f 14/15/67 33/57/66 12/13/68
f 33/57/66 34/58/69 12/13/68
f 12/13/68 34/58/69 10/11/70
f 34/58/69 35/59/71 10/11/70
f 10/11/70 35/59/71 8/9/72
f 35/59/71 3/83/73 8/9/72
f 8/9/72 3/83/73 5/5/74
s 4
f 21/21/27 37/28/75 19/1/25
f 19/1/25 37/28/75 36/45/76
f 23/23/29 38/46/77 21/21/27
f 21/21/27 38/46/77 37/28/75
f 23/23/29 25/25/32 38/46/77
f 38/46/77 25/25/32 39/47/78
f 25/25/32 1/27/34 39/47/78
f 39/47/78 1/27/34 40/48/79
s 8
f 33/3/80 17/52/81 41/54/82
f 41/54/82 17/52/81 42/53/83
s 3
f 17/76/21 19/78/23 42/80/84
f 42/80/84 19/78/23 36/79/85
s 8
f 34/55/86 33/3/80 43/87/87
f 43/87/87 33/3/80 41/54/82
f 34/55/86 43/87/87 35/88/88
f 35/88/88 43/87/87 44/89/89
s 1
f 1/2/1 3/16/3 40/82/90
f 40/82/90 3/16/3 45/81/91
s 8
f 35/88/88 44/89/89 3/90/92
f 3/90/92 44/89/89 45/91/93
